<svg xmlns="http://www.w3.org/2000/svg" xmlns:xlink="http://www.w3.org/1999/xlink" version="1.1" x="0px" y="0px" viewBox="0 0 100 125" enable-background="new 0 0 100 100" xml:space="preserve"><path d="M93.777,64.273c0,1.705-1.383,3.086-3.086,3.086H9.309c-1.705,0-3.086-1.381-3.086-3.086V35.727  c0-1.705,1.381-3.086,3.086-3.086h81.383c1.703,0,3.086,1.381,3.086,3.086V64.273z M90.447,37.526c0-0.932-0.85-1.688-1.898-1.688  H11.569c-1.048,0-1.898,0.756-1.898,1.688v25.103c0,0.933,0.851,1.689,1.898,1.689h76.979c1.049,0,1.898-0.757,1.898-1.689V37.526z   M86.095,56.421l-4.54-5.296c0.787-1.216,1.248-2.661,1.248-4.217c0-4.298-3.483-7.783-7.784-7.783  c-4.299,0-7.784,3.485-7.784,7.783c0,4.299,3.485,7.785,7.784,7.785c1.113,0,2.167-0.236,3.126-0.657l4.547,5.306  c0.453,0.529,1.252,0.59,1.782,0.136l1.486-1.272C86.489,57.75,86.552,56.952,86.095,56.421z M80.173,46.921  c0,2.768-2.245,5.011-5.01,5.011c-2.768,0-5.01-2.243-5.01-5.011c0-2.766,2.242-5.009,5.01-5.009  C77.928,41.912,80.173,44.155,80.173,46.921z"/><text x="0" y="115" fill="#000000" font-size="5px" font-weight="bold" font-family="'Helvetica Neue', Helvetica, Arial-Unicode, Arial, Sans-serif">Created by Lucid Formation</text><text x="0" y="120" fill="#000000" font-size="5px" font-weight="bold" font-family="'Helvetica Neue', Helvetica, Arial-Unicode, Arial, Sans-serif">from the Noun Project</text></svg>